<?xml version="1.0" encoding="UTF-8"?><svg id="Layer_1" xmlns="http://www.w3.org/2000/svg" viewBox="0 0 1024 1024"><polygon points="481.5852 474.6475 540.1786 505.2701 540.6966 571.8832 623.6661 528.7988 623.458 499.0849 481.4777 423.9896 481.3945 334.6568 401.7048 376.8027 401.9555 527.8051 402.0299 589.7454 338.4084 556.6145 338.2939 425.1931 338.1792 341.4524 433.1559 290.6068 508.7234 250.35 555.3997 274.6024 683.8779 341.2489 683.8246 443.436 624.0241 411.939 623.7743 377.3595 539.6753 333.3493 539.9352 386.3321 589.4317 411.7871 683.8545 460.7816 684.2598 564.9735 517.082 652.8213 481.4564 633.9497 481.5852 474.6475"/><path d="M364.2666,772.2523l-13.5468.1625-35.4514-42.9993-.2274,42.9809-16.2382-.005-.017-71.1039c4.5241-.3297,8.9566-.3386,13.7289-.199l35.3,42.9849.1829-43.0376,16.2237-.0685.0453,71.2849Z"/><polygon points="910.7893 772.1554 891.7444 772.3931 868.9304 744.3135 859.3574 754.3701 859.2757 772.3725 842.8716 772.4046 842.8743 701.0264 859.2413 701.0006 859.4588 734.0749 890.8746 701.0407 908.9799 701.1922 879.7521 732.8863 910.7893 772.1554"/><path d="M446.3008,756.7707l.131-21.0552,15.01-.0763.0173,28.9281c-11.8142,8.2845-27.065,11.2165-41.0398,7.3334-16.6932-4.6384-27.2267-19.1105-26.7316-36.3.4243-14.7298,8.8741-27.2797,22.7507-32.6721,14.8926-5.7872,35.1894-3.7603,46.2942,9.262l-10.4426,9.7216c-8.8183-8.9628-22.6712-10.7312-33.1443-3.5456-6.2011,4.2545-8.7294,11.4404-8.7424,18.7091-.0192,10.7646,6.9304,19.8019,17.5945,21.9455,6.052,1.2165,11.7837.1776,18.3029-2.2504Z"/><path d="M249.0335,700.9857l16.2838.0544-.3179,44.6664c-.1066,14.9688-11.3563,25.9251-25.8623,27.4429-4.4336.4639-8.2951.4504-12.7189-.0642-14.1254-1.6432-25.2861-12.3556-25.3993-27.0825l-.3457-44.9686,16.4284-.052.3596,43.4417c.0796,9.6117,7.3869,15.6339,16.4007,15.1299,11.2265-.6278,15.1164-8.2172,15.1279-18.6203l.0439-39.9477Z"/><path d="M536.7048,769.2418c-13.6505,7.5051-35.3534,4.9037-48.4622-3.8509l5.5881-12.3686c9.8194,6.2232,20.9886,9.0048,32.0066,6.1974,2.8577-.7281,5.0541-3.5661,5.2119-5.9858.1686-2.5854-2.2069-5.939-5.1812-6.7908l-21.3436-6.1125c-4.8689-1.3944-9.8491-4.2204-12.3585-8.7104-6.3466-11.356-.5764-24.6521,11.7422-29.0375,13.0863-4.6587,27.6337-3.3514,40.4712,3.2643l-5.0228,12.723c-8.4537-5.9487-33.0439-9.6079-33.306,2.4672-.0637,2.9336,2.2269,5.465,5.4207,6.3577l19.9443,5.5747c5.1418,1.4372,10.6191,4.1635,13.423,8.7887,5.9694,9.8469,1.7126,22.0699-8.1338,27.4835Z"/><path d="M803.9929,751.2305c3.8633,3.0653,7.2212,6.2911,10.7454,9.7695-10.989,13.5342-31.7395,15.5257-46.6026,8.994-13.4995-5.9324-21.5203-18.8181-21.4019-33.6004.1241-15.4959,9.1704-28.7344,23.8974-33.9855,14.2253-5.0723,33.9039-2.8944,44.1161,10.0553l-10.5634,9.653c-8.5658-9.5825-23.751-11.3584-33.5936-2.407-9.2336,8.3976-9.6461,24.0094-1.0987,32.9669,9.3627,9.8118,24.9366,9.0766,34.5013-1.4458Z"/><polygon points="152.5328 772.2767 136.0373 772.4238 136.0027 714.5071 113.2107 714.4396 113.2326 700.9851 175.3366 700.976 175.3756 714.3965 152.5492 714.5248 152.5328 772.2767"/><polygon points="607.201 772.2954 590.7187 772.4082 590.6613 714.491 567.873 714.4313 567.9094 700.9878 629.9602 700.9756 630.0667 714.3792 607.2082 714.5364 607.201 772.2954"/><path d="M703.0145,757.0535l-33.1201-.0526-6.4004,15.4079-16.8442-.084,31.6573-71.1791,16.3995-.1855,31.8612,71.3087-17.238.1842-6.3154-15.3995ZM697.7409,744.5658l-11.2802-27.2468-11.3139,27.3522,22.5942-.1054Z"/></svg>